<svg xmlns="http://www.w3.org/2000/svg" width="52.812" height="39.76" viewBox="0 0 52.812 39.76">
  <metadata><?xpacket begin="﻿" id="W5M0MpCehiHzreSzNTczkc9d"?>
<x:xmpmeta xmlns:x="adobe:ns:meta/" x:xmptk="Adobe XMP Core 5.6-c142 79.160924, 2017/07/13-01:06:39        ">
   <rdf:RDF xmlns:rdf="http://www.w3.org/1999/02/22-rdf-syntax-ns#">
      <rdf:Description rdf:about=""/>
   </rdf:RDF>
</x:xmpmeta>
                                                                                                    
                                                                                                    
                                                                                                    
                                                                                                    
                                                                                                    
                                                                                                    
                                                                                                    
                                                                                                    
                                                                                                    
                                                                                                    
                                                                                                    
                                                                                                    
                                                                                                    
                                                                                                    
                                                                                                    
                                                                                                    
                                                                                                    
                                                                                                    
                                                                                                    
                                                                                                    
                           
<?xpacket end="w"?></metadata>
<defs>
    <style>
      .cls-1 {
        fill: #c0301c;
        fill-rule: evenodd;
      }
    </style>
  </defs>
  <path id="fa-code" class="cls-1" d="M797.6,1088.72a0.927,0.927,0,0,0,0-1.33L786.254,1076l11.345-11.39a0.939,0.939,0,0,0,0-1.34l-1.444-1.44a0.916,0.916,0,0,0-1.328,0l-13.452,13.5a0.939,0.939,0,0,0,0,1.34l13.452,13.5a0.916,0.916,0,0,0,1.328,0Zm17.06-30.92a0.936,0.936,0,0,0-.635-1.16l-1.79-.5a0.926,0.926,0,0,0-1.126.64l-10.767,37.42a0.94,0.94,0,0,0,.635,1.16l1.79,0.49a0.911,0.911,0,0,0,1.126-.63Zm18.966,18.87a0.939,0.939,0,0,0,0-1.34l-13.452-13.5a0.916,0.916,0,0,0-1.328,0l-1.444,1.44a0.939,0.939,0,0,0,0,1.34L828.746,1076,817.4,1087.39a0.927,0.927,0,0,0,0,1.33l1.444,1.45a0.916,0.916,0,0,0,1.328,0Z" transform="translate(-781.094 -1056.12)"/>
</svg>
