<svg xmlns="http://www.w3.org/2000/svg" width="43" height="40" viewBox="0 0 43 40">
  <metadata><?xpacket begin="﻿" id="W5M0MpCehiHzreSzNTczkc9d"?>
<x:xmpmeta xmlns:x="adobe:ns:meta/" x:xmptk="Adobe XMP Core 5.6-c142 79.160924, 2017/07/13-01:06:39        ">
   <rdf:RDF xmlns:rdf="http://www.w3.org/1999/02/22-rdf-syntax-ns#">
      <rdf:Description rdf:about=""/>
   </rdf:RDF>
</x:xmpmeta>
                                                                                                    
                                                                                                    
                                                                                                    
                                                                                                    
                                                                                                    
                                                                                                    
                                                                                                    
                                                                                                    
                                                                                                    
                                                                                                    
                                                                                                    
                                                                                                    
                                                                                                    
                                                                                                    
                                                                                                    
                                                                                                    
                                                                                                    
                                                                                                    
                                                                                                    
                                                                                                    
                           
<?xpacket end="w"?></metadata>
<defs>
    <style>
      .cls-1 {
        fill: #fff;
        fill-rule: evenodd;
      }
    </style>
  </defs>
  <path id="fa-font" class="cls-1" d="M414.735,1067.22a103.607,103.607,0,0,1,4.755,11.77c-0.491.03-.982,0.06-1.473,0.06-2.559,0-5.117-.08-7.675-0.11ZM396,1096a28.379,28.379,0,0,0,4.858-.36,8.948,8.948,0,0,1,1.24-.21c3,0,6.022.52,9.019,0.52a6.52,6.52,0,0,0,.052-0.71c0-.52,0-1.01-0.026-1.51-1.473-.2-5.272-0.28-5.272-2.29,0-.99,2.61-7.81,3.282-9.32l11.629,0.05c0.413,1.07,3.747,8.8,3.747,9.74,0,0.96-1.37,1.15-2.067,1.3l-3.386.73a18.041,18.041,0,0,0-.1,2.03c3.385-.1,6.77-0.39,10.156-0.39,3.281,0,6.563.42,9.845,0.42,0-.23.026-0.44,0.026-0.68a9.653,9.653,0,0,0-.155-1.48c-1.215-.47-3.592-0.63-4.445-1.3a4.6,4.6,0,0,1-.9-1.49c-1.292-2.65-2.2-5.44-3.36-8.15-1.964-4.58-3.747-9.24-5.685-13.85l-5.3-12.5a4.77,4.77,0,0,0-.284-0.55h-3.308l-7.236,18.85L402.2,1090.9c-1.085,2.81-3.721,2.29-6.15,3.04Z" transform="translate(-396 -1056)"/>
</svg>
