<svg xmlns="http://www.w3.org/2000/svg" width="48" height="47.96" viewBox="0 0 48 47.96">
  <metadata><?xpacket begin="﻿" id="W5M0MpCehiHzreSzNTczkc9d"?>
<x:xmpmeta xmlns:x="adobe:ns:meta/" x:xmptk="Adobe XMP Core 5.6-c142 79.160924, 2017/07/13-01:06:39        ">
   <rdf:RDF xmlns:rdf="http://www.w3.org/1999/02/22-rdf-syntax-ns#">
      <rdf:Description rdf:about=""/>
   </rdf:RDF>
</x:xmpmeta>
                                                                                                    
                                                                                                    
                                                                                                    
                                                                                                    
                                                                                                    
                                                                                                    
                                                                                                    
                                                                                                    
                                                                                                    
                                                                                                    
                                                                                                    
                                                                                                    
                                                                                                    
                                                                                                    
                                                                                                    
                                                                                                    
                                                                                                    
                                                                                                    
                                                                                                    
                                                                                                    
                           
<?xpacket end="w"?></metadata>
<defs>
    <style>
      .cls-1 {
        fill: #c0301c;
        fill-rule: evenodd;
      }
    </style>
  </defs>
  <path id="fa-support" class="cls-1" d="M1196.99,1051.87a24,24,0,1,0,24,23.99A23.989,23.989,0,0,0,1196.99,1051.87Zm0,3.42a20.734,20.734,0,0,1,9.67,2.41l-5.19,5.2a13.725,13.725,0,0,0-8.95,0l-5.19-5.2A20.725,20.725,0,0,1,1196.99,1055.29Zm-18.15,30.24a20.605,20.605,0,0,1,0-19.34l5.19,5.2a13.7,13.7,0,0,0,0,8.94Zm18.15,10.9a20.725,20.725,0,0,1-9.66-2.41l5.19-5.2a13.725,13.725,0,0,0,8.95,0l5.19,5.2A20.734,20.734,0,0,1,1196.99,1096.43Zm0-10.29a10.28,10.28,0,1,1,10.29-10.28A10.283,10.283,0,0,1,1196.99,1086.14Zm12.97-5.81a13.871,13.871,0,0,0,0-8.94l5.19-5.2a20.605,20.605,0,0,1,0,19.34Z" transform="translate(-1173 -1051.88)"/>
</svg>
